<?xml version="1.0" standalone="no"?>
<!DOCTYPE svg PUBLIC "-//W3C//DTD SVG 20010904//EN"
 "http://www.w3.org/TR/2001/REC-SVG-20010904/DTD/svg10.dtd">
<svg version="1.0" xmlns="http://www.w3.org/2000/svg"
 width="920.000000pt" height="948.000000pt" viewBox="0 0 920.000000 948.000000"
 preserveAspectRatio="xMidYMid meet">

<g transform="translate(0.000000,948.000000) scale(0.100000,-0.100000)"
fill="#000000" stroke="none">
<path d="M4436 9459 c-1138 -73 -2230 -564 -3031 -1364 -534 -533 -926 -1170
-1170 -1899 -95 -285 -178 -687 -210 -1021 -20 -202 -23 -642 -6 -820 74 -762
285 -1419 656 -2040 100 -166 150 -240 278 -411 126 -169 145 -192 311 -373
150 -165 381 -378 565 -520 758 -589 1642 -929 2601 -1000 152 -11 583 -6 735
9 455 45 905 152 1297 308 147 59 380 163 375 168 -1 2 -36 -6 -77 -16 -121
-32 -362 -77 -545 -101 -151 -21 -211 -23 -530 -24 -383 0 -463 6 -782 61
-720 123 -1473 476 -2058 966 -717 599 -1224 1403 -1455 2303 -177 688 -180
1454 -9 2140 178 712 523 1364 1010 1909 484 541 1096 954 1784 1204 174 64
234 82 410 126 393 98 697 136 1090 136 263 1 414 -10 635 -45 80 -12 146 -21
148 -20 14 12 -387 142 -583 190 -499 123 -951 165 -1439 134z"/>
<path d="M5450 8280 c-449 -35 -871 -144 -1230 -317 -74 -36 -154 -74 -178
-85 -24 -11 -42 -21 -40 -22 2 -2 67 10 144 25 387 77 820 78 1205 4 499 -98
983 -324 1394 -652 140 -111 386 -357 495 -493 237 -297 439 -671 555 -1032
205 -635 200 -1369 -15 -1992 -194 -564 -509 -1028 -965 -1426 -375 -326 -923
-593 -1430 -695 -301 -61 -664 -81 -939 -51 -82 9 -151 14 -153 12 -2 -1 50
-24 116 -49 439 -171 798 -239 1266 -240 677 -2 1299 175 1875 534 321 200
629 473 867 769 280 348 519 808 638 1227 96 336 136 621 137 963 2 1030 -427
1976 -1202 2655 -541 473 -1208 769 -1920 849 -171 20 -471 27 -620 16z"/>
<path d="M4220 5965 l0 -585 -585 0 -585 0 2 -607 3 -608 583 -3 582 -2 0
-580 0 -580 610 0 610 0 0 580 0 580 580 0 580 0 0 610 0 610 -580 0 -580 0 0
585 0 585 -610 0 -610 0 0 -585z"/>
</g>
</svg>
